<svg data-bbox="0 -6.66 378.657 262.66" width="40" height="30" viewBox="0 0 372 256" xmlns="http://www.w3.org/2000/svg" data-type="color">
    <g>
        <defs>
            <clipPath clipPathUnits="userSpaceOnUse" id="b96cfd48-1b66-46dd-bdaf-8c4c98475771">
                <path d="M38.48 1031.71s62.981 10.39 88.93-16.73c25.977-27.105 8.953-83.191-25.512-84.125-34.468-.925-66.324-7.292-88.941 16.727-22.617 24.02-16.547 72.278 25.523 84.128m683.665-382.757c-6.067-.64-12.489 2.145-19.063 6.836-45.152 62.93-61.465 278.106-82.191 290.922-21.493 13.293-99.328-119.223-254.141-104.977-64.738 5.969-130.621 47.907-169.414 76.954 3.605 48.894 4.234 163.062 100.656 125.942 58.574-22.55 158.883-84.474 246.973 26.73 97.402 122.98 151.117 87.26 183.34 60.52 32.207-26.73 10.746-165.759 58.789-126.9 48.043 38.87 242.036 280.2 242.036 280.2s150.19 151.47 173.19-7.77c23-159.23 120.93-335.691 146.88-330.668 25.97 5.039 328.09 619.068 371.36 658.678 43.27 39.63 188.93 34.42 182.01-67.21-6.93-101.62-21.75-733.3-21.75-733.3s-17.09-178 10.74-82.871c11.54 39.441 23.94 75.016 39.44 116.531 74.56 238.71 201.57 646.5 264.86 856.62 14.55 50.28 27.08 93.44 36.8 126.61l.02.09c3.78 15.38 7.53 27.56 11.31 38.43 5.29 17.81 8.87 29.59 9.97 32.7 2.83 7.85 10.76 13.85 21.9 18.25 11.19 7.05 23.19 7.41 36.8 7.76 35.12 3.15 80.29-1.43 120.91-13 11.83-.47 24.7-4.26 36.87-13v-.01s.73-.45 1.76-1.12c.27-.21.56-.36.85-.59 2.54-1.77 6.66-5.25 11.43-10.99.14-.18.29-.41.46-.58 1.97-2.42 3.96-5.28 5.98-8.54 22.69-33.28 36.63-94.63 22.65-203.42-34.83-271.49-61.8-829.987-61.8-829.987s-5.36-26.715 50.6 90.91c1.95 4.098 4.45 7.629 6.74 11.387 3.03 1.996 6.42 4.855 10.62 9.91 34.57 41.223 127.5 65.43 191.95 64.94 27.16-3.29 49.91-10.12 63.5-18.706 25.43-38.714 10.42-181.582 10.42-181.582-53.61-4.961-155.81-33.808-192.03-39.136-36.25-5.36-91.28-240.629-167.78-216.563-76.51 24.055-246.99 130.996-246.99 145.699 0 12.805 13.4 169.098 16.89 209.438.26 2.785.46 5.375.67 7.945.08.746.16 1.613.16 1.613l-.02-.043c2.48 31.77.27 45.653-14.4 13.942-12.63-27.277-67.55-201.793-128.78-391.867-6.47-16.61-122.2-366.856-137.39-409.555-18.13-49.54-33.37-87.457-43.89-107.066-16.02-21.707-37.6-35.301-67.73-26.184-75.16 22.715-170.35 126.582-171.23 152.352-1.81 145.351 7.06 926.863-28.17 861.733-36.17-66.776-317.37-530.19-317.37-530.19-4.71-.809-8.19-.657-12.34-1.036-19.91 2.176-50.76 8.645-59.29 27.704-.47 1.128-1.09 2.148-1.5 3.32-.41 1.187-.87 2.512-1.57 4.672-3.82 12.758-5.38 26.609-8.75 37.953-12.58 42.453-32.71 103.301-53.83 165.195-32.36 105.543-65.73 213.504-71.22 225.422-10.73 23.324-26.37 13.488-40.4.016-62.765-53.235-196.089-288.215-316.495-301.063" clip-rule="evenodd"></path>
            </clipPath>
            <clipPath clipPathUnits="userSpaceOnUse" id="10927b13-f76f-4a2c-9be2-e28317130b7d">
                <path d="M0 0h2790v1920H0Z"></path>
            </clipPath>
        </defs>
        <g clip-path="url(#b96cfd48-1b66-46dd-bdaf-8c4c98475771)" transform="matrix(.13333 0 0 -.13333 0 256)">
            <g clip-path="url(#10927b13-f76f-4a2c-9be2-e28317130b7d)">
                <path d="M0 0h2840v1970H0Z" fill="#ffffff" data-color="1"></path>
            </g>
        </g>
    </g>
</svg>