<svg data-bbox="0.525 1.344 656.861 656.065" viewBox="0 0 658 659" height="878.667" width="877.333" xmlns="http://www.w3.org/2000/svg" data-type="shape">
    <g>
        <path d="M297.7 2.1C197.1 12.5 110.6 64.4 54.9 147.9 26.2 190.8 8.4 239.9 1.8 294c-1.7 13.6-1.7 57.4 0 71 6.1 50 20.7 93.3 45.5 134.5 21.6 36.1 52 69.3 86.9 95.1 37.2 27.5 82.3 47.7 127 56.8 26.7 5.4 34.1 6.1 68.3 6 34.5 0 46-1.1 71.9-7 61.7-13.8 118.8-45.9 163.3-91.7 50.1-51.5 80.7-115 90.4-187.3 2.8-21.2 3.1-58.2.5-79.4-13.4-112.4-80.4-207.5-181.1-257-34-16.8-62.1-25.6-99.3-31.1-15.6-2.3-62-3.4-77.5-1.8zM401.8 146c31.5 7.5 56 32.3 63.3 63.7 1.8 7.9 2.1 11.4 1.7 22.6-.4 11.5-.9 14.4-3.7 22.7-7.6 22.6-22.4 39.7-42.6 49.6-8.6 4.1-22.6 8.3-29 8.5-1.6 0 .9.7 5.7 1.5 22.6 3.5 42.7 13.9 57.7 29.9 37.8 40.5 36.9 102.5-2.1 141.6-12.5 12.5-25 19.8-43.5 25.6l-8.8 2.8h-196l-4.7-2.2c-5.8-2.6-14.1-10.3-17.4-15.9-3.5-6-5.5-16.3-4.4-23 1.5-9 23.2-104.8 23.9-105.7.6-.6 86.7 10.1 95.4 11.9l2.7.6-2.9 5.2c-7.9 13.8-8 31.7-.3 46 4.1 7.6 11.9 14.9 20.8 19.3 7.7 3.8 7.9 3.8 19.8 3.8s12.2-.1 19.9-3.7c10.3-4.9 17.6-12.2 22.4-22.3 3.1-6.6 3.7-8.9 4.1-17 .4-7.6.1-10.6-1.7-16.4-4-13.1-15.5-24.7-29.8-30.1-4.3-1.6-23.3-4.5-75-11.4-38.1-5.1-69.5-9.4-69.8-9.8-.7-.7 28.3-130 29.5-131.1.4-.5 17.9 1.4 38.8 4.2 20.9 2.8 38.2 5.1 38.5 5.1.3 0-.7 2.8-2 6.2-2.2 5.4-2.5 7.3-2.1 15.7.3 7.8.9 10.6 3.1 15.2 3.6 7.5 10.8 14.6 18.7 18.3 5.9 2.8 7.4 3.1 16.5 3.1 8.7 0 10.7-.4 15.6-2.6 23.7-11.1 30.4-42.4 13-61.2-4.4-4.8-13-9.8-19.8-11.6-2.3-.6-29-4.4-59.3-8.5-30.3-4-55.3-7.6-55.6-7.9-.6-.6 6.1-31.4 7.7-35.8 1.1-2.8 5.4-7.3 7.9-8.2.8-.3 31.7-.6 68.5-.6 63.6-.1 67.4 0 75.3 1.9z"></path>
    </g>
</svg>