<svg data-bbox="1 1 30 30" xmlns="http://www.w3.org/2000/svg" viewBox="0 0 32 32" data-type="color">
    <g>
        <path fill="#ffffff" d="M15.737 31C7.474 31 1 24.411 1 16c0-3.629 1.238-7.111 3.485-9.804a.5.5 0 0 1 .768.641C3.155 9.35 2 12.604 2 16c0 7.851 6.034 14 13.737 14C23.602 30 30 23.72 30 16S23.602 2 15.737 2c-2.441 0-4.812.62-6.857 1.791a.5.5 0 1 1-.497-.867C10.579 1.665 13.122 1 15.737 1 24.153 1 31 7.729 31 16s-6.847 15-15.263 15z" data-color="1"></path>
        <path fill="#ffffff" d="M7.543 4.552c0 .275-.225.5-.5.5a.501.501 0 0 1-.5-.5.5.5 0 0 1 1 0z" data-color="1"></path>
        <path d="M26.44 14.042c.363-.652.145-1.522-.507-1.885-5.365-3.19-13.848-3.48-18.995-1.958-.652.217-1.087.942-.87 1.667.218.652.942 1.087 1.667.87 4.423-1.377 12.18-1.087 16.82 1.667.653.365 1.523.147 1.885-.361zM8.243 19.625c-.435.145-.798.58-.653 1.087.145.435.58.797 1.088.653 5.075-1.16 9.352-.725 12.76 1.377.435.29.942.145 1.232-.29.218-.435.145-1.015-.362-1.232-3.77-2.32-8.556-2.827-14.065-1.595zm16.167-1.16c.362-.507.145-1.232-.29-1.45-4.495-2.755-11.02-3.553-16.313-1.958-.58.145-.87.797-.725 1.377s.797.87 1.377.725c4.567-1.45 10.513-.725 14.428 1.667.508.364 1.16.147 1.523-.361z" fill="#ffffff" data-color="1"></path>
    </g>
</svg>