<svg id="Layer_1" data-name="Layer 1" xmlns="http://www.w3.org/2000/svg" viewBox="0 0 333.93 45.5"><title>Audiomack logo - Brandlogos.net</title><path d="M348,400.66h-8.44V396.6h-.13a9.63,9.63,0,0,1-8.38,4.7q-9.55,0-9.54-11.2V374h8.44v15.34q0,5.63,4.61,5.64a4.61,4.61,0,0,0,3.64-1.54,6.1,6.1,0,0,0,1.36-4.2V374H348v26.62m-29.5,0h-8v-3.82h-.11a9,9,0,0,1-8.16,4.47,8.7,8.7,0,0,1-6.29-2.2,7.74,7.74,0,0,1-2.29-5.87q0-7.74,9.45-8.94l7.45-1q0-4.37-4.88-4.36a17,17,0,0,0-9.32,2.83v-6.19a21,21,0,0,1,4.84-1.56,26,26,0,0,1,5.59-.67q11.72,0,11.73,11.36Zm-8-10.81V388l-5,.62q-4.13.52-4.12,3.62a2.94,2.94,0,0,0,1,2.3,4,4,0,0,0,2.72.89,5.09,5.09,0,0,0,3.89-1.6,5.69,5.69,0,0,0,1.5-4Zm68.16,10.81H370.2V397h-.1a9.58,9.58,0,0,1-8.49,4.31,10.52,10.52,0,0,1-8.27-3.52q-3.14-3.51-3.14-9.84,0-6.6,3.46-10.58a11.4,11.4,0,0,1,9.05-4c3.54,0,6,1.23,7.39,3.69h.1V361.25h8.46v39.4Zm-8.3-12.94v-2a6.2,6.2,0,0,0-1.56-4.31,5.6,5.6,0,0,0-8.44.43,9.78,9.78,0,0,0-1.58,5.89,8.44,8.44,0,0,0,1.53,5.4,5.53,5.53,0,0,0,8.43-.1A8.19,8.19,0,0,0,370.36,387.71Zm16.27-17.89a5,5,0,0,1-3.51-1.23,3.9,3.9,0,0,1-1.36-3,3.77,3.77,0,0,1,1.36-3,5.86,5.86,0,0,1,7,0,3.8,3.8,0,0,1,1.36,3,3.9,3.9,0,0,1-1.36,3.07A5.15,5.15,0,0,1,386.63,369.82Zm4.1,21.81a3.54,3.54,0,0,0,.83,2.56,2.94,2.94,0,0,0,2.22.87,7,7,0,0,0,1.39-.14l1.4-.25v5.78a31,31,0,0,1-3.23.63,24.17,24.17,0,0,1-3.55.25,8.28,8.28,0,0,1-3.07-.54,6.57,6.57,0,0,1-2.36-1.58,7.13,7.13,0,0,1-1.51-2.48,9.46,9.46,0,0,1-.54-3.28V374h8.41Zm19.22,9.67q-6.85,0-10.78-3.73c-2.62-2.48-3.92-5.87-3.92-10.12s1.35-7.85,4.07-10.34,6.38-3.73,11-3.73,8.13,1.24,10.71,3.73a13.05,13.05,0,0,1,3.89,9.87q0,6.63-4,10.48T409.95,401.3Zm.22-21.62a5.72,5.72,0,0,0-4.66,2,8.67,8.67,0,0,0-1.66,5.67q0,7.66,6.38,7.66,6.07,0,6.08-7.87Q416.3,379.68,410.17,379.68Zm60.54,21h-8.44V385.47q0-5.79-4.39-5.79a4.07,4.07,0,0,0-3.4,1.74,7,7,0,0,0-1.31,4.34v14.9H444.7V385.31c0-3.75-1.45-5.63-4.31-5.63a4.16,4.16,0,0,0-3.46,1.66,7.17,7.17,0,0,0-1.31,4.53v14.79h-8.46V374h8.46v4.16h.11a9.94,9.94,0,0,1,3.68-3.47,10.33,10.33,0,0,1,5.18-1.34q5.81,0,8,5a10.22,10.22,0,0,1,9.22-5q8.94,0,8.94,10.71Zm26.26,0h-8v-3.83h-.11a9,9,0,0,1-8.16,4.47,8.7,8.7,0,0,1-6.29-2.19,7.76,7.76,0,0,1-2.28-5.87q0-7.74,9.45-8.94l7.45-1q0-4.37-4.88-4.36a17,17,0,0,0-9.32,2.83v-6.19a21,21,0,0,1,4.84-1.56,26,26,0,0,1,5.58-.67q11.73,0,11.73,11.36v15.91ZM489,388l-5,.62q-4.13.52-4.13,3.62a2.94,2.94,0,0,0,1,2.3,4,4,0,0,0,2.72.89,5.1,5.1,0,0,0,3.89-1.6,5.7,5.7,0,0,0,1.5-4V388Zm32.18,11.65c-1.91,1.07-4.67,1.6-8.27,1.6a14.2,14.2,0,0,1-10.23-3.72,12.65,12.65,0,0,1-3.91-9.59q0-6.79,4.19-10.69t11.22-3.91q4.84,0,7,1.24v7a9.8,9.8,0,0,0-5.91-1.92,7.92,7.92,0,0,0-5.78,2.07,7.57,7.57,0,0,0-2.13,5.71,7.46,7.46,0,0,0,2,5.55,7.57,7.57,0,0,0,5.59,2,11.36,11.36,0,0,0,6.19-1.92Zm29.78,1H540.81l-8.75-13.2h-.11v13.2h-8.46V361.25h8.46v25.09h.11l8.17-12.3h10l-9.83,12.5Z" transform="translate(-217.03 -361.25)" style="fill:#404040"/><path d="M217.89,383.45s1.41-.23,2,.38.2,1.88-.57,1.9-1.48.17-2-.38a1.17,1.17,0,0,1,.57-1.9m15.28,8.65a.67.67,0,0,1-.43-.16c-1-1.42-1.37-6.28-1.84-6.57s-2.22,2.69-5.68,2.37a8.21,8.21,0,0,1-3.78-1.74c.08-1.1.09-3.68,2.25-2.85,1.31.51,3.55,1.91,5.52-.6,2.18-2.78,3.37-2,4.1-1.37s.24,3.74,1.31,2.86,5.41-6.33,5.41-6.33,3.36-3.42,3.87.18,2.7,7.58,3.28,7.47,7.33-14,8.3-14.88,4.22-.78,4.07,1.52-.49,16.56-.49,16.56-.38,4,.24,1.87c.26-.89.53-1.69.88-2.63,1.66-5.39,4.5-14.6,5.92-19.35l.82-2.86q.11-.44.25-.87c.12-.41.2-.67.22-.74a.78.78,0,0,1,.49-.41,1.52,1.52,0,0,1,.82-.18,7.85,7.85,0,0,1,2.7.29,1.5,1.5,0,0,1,.82.3l0,0h0a1.37,1.37,0,0,1,.25.25h0l.14.2c.5.75.82,2.14.5,4.59-.78,6.13-1.38,18.74-1.38,18.74s-.12.6,1.13-2.05c0-.09.1-.17.15-.26a1.08,1.08,0,0,0,.24-.22c.77-.93,2.85-1.48,4.29-1.46a3.62,3.62,0,0,1,1.42.42c.57.88.23,4.1.23,4.1-1.2.11-3.48.76-4.29.88s-2,5.44-3.75,4.89-5.52-3-5.52-3.29.3-3.82.38-4.73v-.22c.05-.72,0-1-.32-.31s-1.51,4.56-2.88,8.85c-.14.37-2.73,8.29-3.07,9.25a23.86,23.86,0,0,1-1,2.42,1.3,1.3,0,0,1-1.52.59c-1.68-.51-3.81-2.86-3.82-3.44,0-3.28.16-20.93-.63-19.46s-7.09,12-7.09,12l-.28,0c-.44,0-1.13-.2-1.32-.62l0-.08,0-.11c-.08-.29-.12-.6-.2-.86-.28-1-.73-2.33-1.2-3.73-.72-2.39-1.47-4.82-1.59-5.09-.24-.53-.59-.3-.9,0-1.4,1.2-4.38,6.51-7.07,6.8" transform="translate(-217.03 -361.25)" style="fill:#ffa200"/></svg>